# xmcd
#
# Track frame offsets:
#	150
#	15775
#	40355
#	62407
#	84197
#	100057
#	120475
#	138845
#	151985
#	177037
#	197855
#	219105
#	234232
#
# Disc length: 3284 seconds
#
# Revision: 1
# Processed by: cddbd v1.5PL3 Copyright (c) Steve Scherf et al.
# Submitted via: audiograbber 1.83.01
#
DISCID=8e0cd20d
DTITLE=BluesAirmen - BluesAirmen
DYEAR=1999
DGENRE=Blues
TTITLE0=Makes No Sense
TTITLE1=What The Hell Were You Thinking
TTITLE2=Surrender to the Blues
TTITLE3=Drinkin' Alone
TTITLE4=Fool D'Jour
TTITLE5=Way Down
TTITLE6=Fire of Your Love
TTITLE7=Kiss It Goodbye
TTITLE8=Cryin' Shame
TTITLE9=See Me Cry
TTITLE10=Where Were You
TTITLE11=The Edge
TTITLE12="Surf Music"
EXTD=
EXTT0=
EXTT1=
EXTT2=
EXTT3=
EXTT4=
EXTT5=
EXTT6=
EXTT7=
EXTT8=
EXTT9=
EXTT10=
EXTT11=
EXTT12=
PLAYORDER=
